<svg version="1.1" id="Layer_1" xmlns="http://www.w3.org/2000/svg" xmlns:xlink="http://www.w3.org/1999/xlink" x="0px" y="0px"
	 width="100%" viewBox="0 0 1641 1174" enable-background="new 0 0 1641 1174" xml:space="preserve">
<path fill="#FFFFFF" opacity="1.000000" stroke="none" 
	d="
M1243.877441,1.401480 
	C1375.144775,1.000000 1506.289429,1.016612 1637.434082,0.913200 
	C1641.061279,0.910340 1642.104126,1.531570 1642.103027,5.432711 
	C1641.992554,393.701050 1641.992065,781.969421 1642.108521,1170.237793 
	C1642.109741,1174.264526 1641.345337,1175.113647 1637.263794,1175.112183 
	C1293.821655,1174.990723 950.379456,1175.000000 606.468628,1175.000000 
	C606.426880,1171.843750 609.342163,1172.158081 611.302856,1171.454590 
	C629.599304,1164.890625 639.841675,1148.319580 638.677124,1126.904419 
	C637.730896,1109.504883 623.786133,1092.963013 606.753357,1089.034912 
	C579.524414,1082.755371 553.748657,1101.933472 553.691223,1129.578491 
	C553.654297,1147.327637 560.957336,1161.828369 577.870972,1170.085815 
	C579.936890,1171.094482 582.970032,1171.159668 583.213989,1174.685669 
	C498.312439,1175.000000 413.624878,1175.000000 328.468658,1175.000000 
	C327.971802,1172.527222 330.154114,1172.802734 331.538330,1172.344482 
	C348.544189,1166.715942 358.769958,1155.286255 361.630402,1137.095703 
	C361.540405,1130.589600 362.184906,1124.449585 360.501099,1118.377686 
	C354.904327,1098.194946 334.785400,1084.800903 313.933044,1087.517212 
	C291.807526,1090.399414 276.383301,1107.678955 276.286255,1129.511841 
	C276.233643,1141.349365 279.941071,1151.688232 288.182648,1160.734131 
	C292.686493,1165.635742 297.714783,1169.059692 303.681274,1171.115356 
	C305.682617,1171.804810 307.967041,1172.115723 309.072449,1174.637451 
	C207.690277,1175.000000 106.380531,1174.981079 5.070917,1175.084595 
	C1.802969,1175.087891 0.896831,1174.641846 0.897830,1171.072754 
	C1.006624,782.330017 1.007481,393.587250 0.889559,4.844516 
	C0.888424,1.105872 2.059399,0.927119 5.153699,0.929092 
	C134.789993,1.011755 264.426331,1.000000 394.531342,1.000000 
	C397.197968,3.777900 396.459473,7.067123 396.460815,10.163957 
	C396.498657,96.826691 396.473114,183.489456 396.514893,270.152191 
	C396.519806,280.334595 394.894928,280.108398 406.475647,281.788513 
	C421.269867,283.934753 436.000519,284.398834 450.701599,281.198273 
	C458.041626,279.600281 458.500305,279.066467 458.501801,271.569153 
	C458.514923,205.905457 458.506287,140.241745 458.510742,74.578049 
	C458.511505,63.637379 458.638519,63.510887 469.728424,63.510761 
	C703.551147,63.508118 937.373901,63.508415 1171.196655,63.510342 
	C1182.484375,63.510433 1182.489990,63.519222 1182.490112,74.955757 
	C1182.491333,379.941956 1182.491089,684.928162 1182.490112,989.914368 
	C1182.490112,1001.811340 1181.235229,1002.949768 1169.312378,1004.445129 
	C1162.289185,1005.325989 1155.346191,1004.469727 1148.369019,1004.471252 
	C1023.874634,1004.498718 899.380310,1004.485779 774.885925,1004.509644 
	C769.703430,1004.510620 764.573914,1004.307251 759.489197,1003.170166 
	C751.005859,1001.273132 742.515686,1003.260071 734.105347,1003.781311 
	C723.603455,1004.432251 713.130981,1004.418396 702.645630,1004.464172 
	C668.328491,1004.614014 634.028076,1002.742249 599.705505,1003.500061 
	C497.234161,1005.762329 394.749847,1003.842285 292.273926,1004.517029 
	C282.272186,1004.582825 272.351135,1002.952087 262.329956,1003.454712 
	C254.519745,1003.846497 246.743011,1004.920654 238.887756,1004.504578 
	C232.010834,1004.140442 225.309692,1003.090454 218.941055,1000.343079 
	C216.563019,999.317200 214.378220,998.030457 213.860886,995.272461 
	C211.649033,983.480591 207.077194,972.230774 205.848602,960.215393 
	C205.371399,955.548401 205.333954,950.917969 206.350739,946.293945 
	C207.023499,943.234558 208.781677,941.712769 211.892578,941.596069 
	C214.225784,941.508484 216.557831,941.511536 218.890518,941.511475 
	C359.050842,941.508667 499.211243,941.461670 639.371338,941.653503 
	C646.152100,941.662781 649.732727,939.601074 652.821045,933.465210 
	C663.874878,911.503418 672.290955,888.524963 680.381470,865.400330 
	C692.932251,829.527222 707.097229,794.264343 720.538574,758.728455 
	C750.606873,679.234619 780.676697,599.741516 810.616821,520.199158 
	C827.230652,476.060760 843.655701,431.850891 860.491638,387.796204 
	C864.367249,377.654907 867.110840,367.172607 870.030640,356.744598 
	C871.301208,352.206696 870.757812,351.696533 865.843811,351.496948 
	C846.537170,350.712769 827.226562,350.444336 807.900879,350.449829 
	C582.077759,350.514099 356.254639,350.504669 130.431534,350.432465 
	C122.798988,350.430023 115.189453,352.184753 107.518700,350.526306 
	C104.747650,349.927155 102.003143,349.335876 99.296936,348.477325 
	C94.914261,347.086884 92.492165,344.233917 91.350456,339.739868 
	C87.857201,325.989502 84.968460,312.146912 83.703751,297.994385 
	C83.068161,290.881897 84.175377,289.021149 90.751556,286.019745 
	C95.427330,283.885742 100.347153,283.487366 105.397293,283.490479 
	C154.395050,283.520416 203.392838,283.505585 252.390625,283.513214 
	C259.797028,283.514374 267.039978,282.559662 273.872528,279.584015 
	C285.672211,274.445038 290.480591,264.494690 291.178955,252.480316 
	C291.812256,241.584488 286.667084,233.269852 277.420776,227.536942 
	C271.193329,223.675766 264.414246,221.487869 257.063934,221.525238 
	C225.743774,221.684433 194.440933,219.553848 163.123489,220.547501 
	C131.477905,221.551575 99.829979,221.370651 68.180435,221.562912 
	C59.164104,221.617691 50.252213,220.024887 41.233990,220.472305 
	C32.085194,220.926193 22.940062,221.407455 13.873143,222.762558 
	C8.037528,223.634735 7.606346,224.260712 8.618642,229.832214 
	C20.147476,293.284882 31.866392,356.702789 43.455452,420.144409 
	C57.500061,497.028473 71.613678,573.899902 85.677460,650.780396 
	C97.612206,716.022400 109.596001,781.255493 121.539062,846.496033 
	C133.602112,912.392212 145.795914,978.264404 157.713394,1044.187256 
	C158.662140,1049.435303 159.880859,1054.632812 160.691360,1059.905396 
	C161.176239,1063.059692 162.893280,1064.583252 166.113083,1064.492554 
	C167.776474,1064.445557 169.445496,1064.508057 171.111984,1064.508057 
	C526.762573,1064.509277 882.413147,1064.485229 1238.063599,1064.677246 
	C1245.326294,1064.681152 1249.084595,1062.174927 1252.415161,1056.027100 
	C1286.116577,993.817200 1326.315308,936.062561 1372.276001,882.288818 
	C1394.607910,856.160583 1418.570923,831.546448 1443.592773,808.073242 
	C1493.203125,761.533447 1547.231689,720.658813 1605.389648,685.297485 
	C1613.933716,680.102478 1622.582520,675.086243 1631.133667,669.905151 
	C1635.682617,667.148926 1635.741577,666.453308 1631.481934,663.456299 
	C1603.678589,643.894958 1575.841919,624.380981 1548.028442,604.833862 
	C1509.580811,577.812988 1471.099976,550.839172 1432.668335,523.795410 
	C1426.648560,519.559387 1426.370483,518.220276 1430.860107,512.154419 
	C1444.546387,493.662170 1459.019043,475.814606 1474.495728,458.769196 
	C1482.558472,449.889191 1490.618286,440.986542 1499.058228,432.494415 
	C1516.555054,414.889923 1534.839478,398.096588 1553.689697,381.932556 
	C1558.160156,378.099243 1558.205566,376.704651 1554.304321,372.114624 
	C1551.568237,368.895477 1548.220947,366.467590 1544.533325,364.439819 
	C1496.056763,337.782928 1447.950073,310.462616 1399.577881,283.618683 
	C1361.261353,262.355042 1322.979614,241.027405 1284.385620,220.265854 
	C1277.212524,216.407028 1269.909668,212.760162 1263.305908,207.845001 
	C1251.974243,199.410812 1247.194092,187.930908 1246.488037,174.225937 
	C1246.014404,165.033173 1247.546997,155.946030 1247.532959,146.779434 
	C1247.475586,109.281219 1247.523560,71.782852 1247.500244,34.284565 
	C1247.493408,23.320215 1248.629639,12.211408 1243.877441,1.401480 
z"/>
<path fill="#564DCE" opacity="1.000000" stroke="none" 
	d="
M1243.531372,1.000000 
	C1248.280151,7.215334 1249.126465,14.126478 1249.093018,21.553757 
	C1248.901978,64.219391 1248.968750,106.886375 1249.030640,149.552780 
	C1249.041016,156.680634 1248.036987,163.725021 1247.852051,170.852524 
	C1247.335938,190.739944 1256.948486,203.904633 1273.777344,212.980225 
	C1303.975464,229.265686 1334.137451,245.618881 1364.238525,262.082794 
	C1381.864990,271.723663 1399.371826,281.584839 1416.883667,291.433563 
	C1443.073486,306.162781 1469.187134,321.027771 1495.397827,335.719666 
	C1511.784912,344.905121 1528.218628,354.013306 1544.783447,362.872009 
	C1550.317627,365.831635 1554.735474,369.684906 1558.308105,374.756683 
	C1560.024536,377.193207 1560.112915,378.921539 1557.622803,380.932129 
	C1542.825195,392.879852 1529.295776,406.242828 1515.185425,418.953247 
	C1503.059082,429.876526 1492.173096,441.914032 1481.071411,453.726746 
	C1467.023071,468.675049 1453.637817,484.276733 1441.438965,500.856598 
	C1437.666992,505.983337 1433.587402,510.903076 1429.946655,516.148804 
	C1428.778442,517.831665 1427.812134,518.499390 1430.513062,520.362305 
	C1451.353638,534.737183 1471.921631,549.506592 1492.613892,564.097351 
	C1519.573608,583.107544 1546.543213,602.104187 1573.559448,621.034180 
	C1594.148682,635.460876 1614.814087,649.779175 1635.453369,664.134399 
	C1638.499878,666.253296 1638.537598,667.581421 1635.010742,669.603027 
	C1605.543335,686.493774 1576.798584,704.500793 1549.091797,724.209106 
	C1530.016357,737.777832 1511.344238,751.856262 1493.180176,766.573425 
	C1482.317749,775.374512 1471.862671,784.728027 1461.320923,793.946045 
	C1441.775635,811.037170 1423.710449,829.611572 1405.568237,848.097473 
	C1388.136597,865.859497 1371.985229,884.791870 1356.220215,904.083618 
	C1333.626953,931.731201 1312.731934,960.576538 1293.167358,990.399780 
	C1281.170166,1008.687561 1269.886841,1027.429565 1259.165527,1046.500000 
	C1255.966431,1052.190308 1252.881592,1057.945312 1249.774170,1063.686768 
	C1248.948730,1065.211914 1248.048340,1066.383301 1246.007690,1066.034058 
	C1244.874390,1065.839966 1243.680298,1066.000000 1242.513672,1066.000000 
	C883.848450,1066.000000 525.183228,1065.999878 166.517990,1065.999756 
	C159.628281,1065.999756 159.966492,1065.947510 158.924591,1059.127563 
	C157.175232,1047.676758 154.996811,1036.289795 152.907761,1024.892822 
	C150.320847,1010.779663 147.654770,996.680969 144.997894,982.580750 
	C141.707016,965.115967 138.274155,947.676941 135.114929,930.188538 
	C131.285278,908.988770 127.804153,887.725830 123.935669,866.533447 
	C120.510567,847.769897 116.641586,829.087646 113.189941,810.328735 
	C109.970901,792.833984 107.145683,775.266907 103.956421,757.766479 
	C101.208931,742.690063 98.081436,727.683044 95.326004,712.608032 
	C92.420975,696.714600 89.840080,680.762085 86.961197,664.863708 
	C84.898911,653.474915 82.497261,642.147888 80.395279,630.765869 
	C77.846985,616.967102 75.478271,603.135376 72.988373,589.325684 
	C70.585732,575.999878 68.123093,562.684998 65.695328,549.363708 
	C63.121906,535.243225 60.564831,521.119751 57.988979,506.999725 
	C55.295094,492.232635 52.605610,477.464691 49.880463,462.703339 
	C47.275570,448.593353 44.639473,434.489105 41.994961,420.386475 
	C38.749294,403.078003 35.397141,385.789032 32.245350,368.463562 
	C29.061792,350.963348 26.171907,333.409546 22.957804,315.915161 
	C20.159492,300.683960 16.841808,285.545380 14.208439,270.287384 
	C11.655938,255.497925 9.195807,240.697983 6.101718,226.008621 
	C5.628846,223.763626 6.346001,222.377960 9.079708,221.940430 
	C23.297667,219.664841 37.629723,218.183746 51.965862,219.123276 
	C80.071342,220.965179 108.207779,220.437958 136.268433,219.679626 
	C160.385513,219.027847 184.490814,218.914642 208.577560,219.221039 
	C225.673203,219.438492 242.824387,219.177536 259.869049,220.237122 
	C273.795685,221.102905 285.346039,227.393433 291.066589,241.285660 
	C296.520813,254.530914 289.132660,275.937195 274.261169,281.139801 
	C266.855133,283.730743 259.444885,285.026459 251.666656,285.020233 
	C202.166885,284.980530 152.666962,285.046478 103.167389,284.939453 
	C97.174583,284.926514 91.944878,286.747040 86.879066,289.599060 
	C83.060089,291.749115 84.922813,295.367401 85.164955,298.045197 
	C86.356865,311.226288 88.961998,324.200775 92.078575,337.061798 
	C94.017128,345.061523 98.653252,348.178131 107.106468,349.155670 
	C113.229736,349.863770 119.185875,349.053070 125.216713,349.051575 
	C365.049072,348.991028 604.881409,348.963135 844.713684,349.150238 
	C853.282532,349.156921 861.902893,350.108215 870.516541,349.963318 
	C873.065491,349.920471 873.439758,351.365234 872.884705,353.096802 
	C868.365356,367.194244 864.767090,381.571442 859.316345,395.390900 
	C851.670654,414.775055 844.432800,434.320648 837.081238,453.820099 
	C826.916870,480.780609 816.828369,507.769714 806.670776,534.732788 
	C798.521118,556.365784 790.310425,577.975769 782.138550,599.600403 
	C771.262939,628.380005 760.401184,657.164734 749.528870,685.945618 
	C741.704651,706.657471 733.892822,727.374023 726.039673,748.074890 
	C715.991943,774.560425 705.804016,800.993286 695.875732,827.523438 
	C689.087097,845.663879 682.536438,863.895447 676.065796,882.152344 
	C668.965576,902.185730 660.506104,921.616089 650.883606,940.555298 
	C649.972595,942.348389 648.863647,943.413757 646.677063,943.034241 
	C645.544556,942.837646 644.349792,943.000000 643.183105,943.000000 
	C500.516998,943.000061 357.850922,942.999939 215.184814,943.000000 
	C207.288345,943.000000 207.273148,942.999756 207.004990,951.242981 
	C206.724670,959.859924 208.356339,968.177368 210.699295,976.434692 
	C212.430420,982.535767 214.599213,988.585144 214.944611,994.984131 
	C215.091537,997.706299 217.111084,998.220398 218.812729,998.871765 
	C230.603897,1003.385254 242.691971,1003.583740 255.175888,1002.282654 
	C263.501404,1001.414917 272.079376,1001.185303 280.502380,1002.712036 
	C282.117401,1003.004761 283.801910,1002.989014 285.454376,1002.989258 
	C385.787323,1003.001221 486.122955,1003.395996 586.451233,1002.710693 
	C610.374146,1002.547302 634.351196,1001.587219 658.248474,1002.277649 
	C679.195801,1002.882812 700.125793,1002.853271 721.059937,1002.887207 
	C729.927551,1002.901550 738.822632,1002.189819 747.682190,1001.158325 
	C751.684021,1000.692383 755.831482,1000.617859 760.002014,1001.768860 
	C763.736206,1002.799500 767.735535,1003.071106 771.747803,1003.068481 
	C898.747253,1002.985046 1025.746704,1002.971680 1152.746216,1003.071411 
	C1160.239380,1003.077332 1167.683838,1003.407837 1175.112061,1002.037231 
	C1179.186401,1001.285583 1181.128418,999.868835 1181.126221,995.026123 
	C1180.986084,686.860779 1180.988281,378.695343 1181.111206,70.529953 
	C1181.113037,65.861946 1179.803345,64.902000 1175.362549,64.904037 
	C938.863464,65.012581 702.364441,65.015915 465.865448,64.886696 
	C461.100830,64.884094 459.862885,65.919159 459.876038,70.802261 
	C460.059052,138.801498 459.951630,206.801498 460.108368,274.800873 
	C460.118866,279.352203 458.655884,281.136414 454.349365,282.072449 
	C438.557587,285.504639 422.770081,286.191833 406.866119,283.073700 
	C404.777252,282.664185 402.498962,282.451935 400.533661,282.472778 
	C395.044128,282.530914 394.922028,279.670532 394.926514,275.432678 
	C395.023224,184.267654 395.000000,93.102463 395.000000,1.468657 
	C677.687561,1.000000 960.375183,1.000000 1243.531372,1.000000 
z"/>
<path fill="#564DCE" opacity="1.000000" stroke="none" 
	d="
M583.468628,1175.000000 
	C583.209778,1173.453735 582.235474,1173.345215 581.014832,1172.883789 
	C565.833313,1167.144897 556.497314,1155.853394 553.358276,1140.346558 
	C548.494019,1116.317261 560.402161,1093.719727 587.154907,1087.305298 
	C602.228760,1083.691162 616.750916,1087.891479 627.554382,1099.351196 
	C640.253174,1112.821289 643.576050,1129.849121 637.081055,1147.646606 
	C631.755371,1162.239746 620.965881,1170.506226 606.150757,1174.654541 
	C598.645752,1175.000000 591.291504,1175.000000 583.468628,1175.000000 
z"/>
<path fill="#564DCE" opacity="1.000000" stroke="none" 
	d="
M309.468262,1175.000000 
	C307.766937,1172.963135 305.426483,1172.921997 303.564606,1172.339966 
	C297.534912,1170.454956 292.611053,1166.982666 288.025513,1162.347900 
	C289.897064,1160.224365 291.767365,1161.006592 293.752716,1162.217163 
	C305.870209,1169.606323 318.628174,1171.432617 332.512421,1167.755859 
	C346.108826,1164.155151 353.459747,1154.737549 358.573425,1142.635986 
	C359.478912,1140.493164 359.006958,1137.450439 362.492126,1136.807495 
	C361.174957,1155.644775 346.756866,1171.225098 328.160553,1174.648438 
	C321.978851,1175.000000 315.957703,1175.000000 309.468262,1175.000000 
z"/>
<path fill="#564DCE" opacity="1.000000" stroke="none" 
	d="
M362.902679,1136.539551 
	C360.634277,1137.233276 361.092834,1139.122559 360.744690,1140.446655 
	C358.239838,1149.973389 352.869812,1157.800903 344.944519,1163.262817 
	C330.663879,1173.104370 315.294098,1173.182617 299.443390,1166.863525 
	C295.772156,1165.399902 293.100800,1161.791748 288.298340,1162.026367 
	C280.085449,1155.228271 276.289581,1146.127563 275.180298,1136.325928 
	C272.911835,1116.281982 281.249817,1098.677734 299.942139,1090.132202 
	C326.243622,1078.107910 356.761322,1092.172729 362.821991,1122.110596 
	C363.729309,1126.592407 362.963684,1131.412720 362.902679,1136.539551 
z"/>
<path fill="#FFFFFF" opacity="1.000000" stroke="none" 
	d="
M746.039185,506.135132 
	C731.093323,546.143494 716.122925,585.731995 701.304871,625.377441 
	C690.420593,654.498352 679.840637,683.733032 668.934448,712.845581 
	C656.484070,746.080017 643.805969,779.229004 631.259033,812.427307 
	C624.180054,831.157593 616.977173,849.845764 610.305359,868.720825 
	C609.174438,871.919983 607.083679,872.373596 604.990417,872.845276 
	C591.920715,875.790771 578.819336,876.662720 565.324097,875.286987 
	C555.031189,874.237671 544.714966,872.880371 534.251831,872.896057 
	C422.756012,873.063354 311.259674,872.940125 199.764099,873.183411 
	C194.401291,873.195068 192.766464,871.458313 192.022736,866.847412 
	C187.866150,841.077087 182.847778,815.461548 178.145081,789.788391 
	C173.149109,762.514160 168.423569,735.193359 163.156372,707.964905 
	C158.693817,684.896057 155.119568,661.656738 150.935730,638.532043 
	C147.830399,621.368347 143.660355,604.366577 141.275406,587.111511 
	C138.714111,568.580566 132.582184,551.025757 128.484268,532.935364 
	C124.126137,513.696289 120.100853,494.389374 116.953217,474.901642 
	C113.856239,455.727509 110.501945,436.594513 107.169136,417.459381 
	C106.706955,414.805847 107.386040,413.688843 110.131500,413.984161 
	C111.119980,414.090515 112.129593,414.000061 113.129555,414.000061 
	C333.455200,414.000000 553.780884,413.999908 774.106506,414.000305 
	C780.967590,414.000336 780.769226,413.927155 778.342346,420.295990 
	C771.154480,439.159088 764.156738,458.094482 757.046326,476.987213 
	C753.433289,486.587341 749.737976,496.156555 746.039185,506.135132 
z"/>
<path fill="#FFFFFF" opacity="1.000000" stroke="none" 
	d="
M1248.000000,466.000000 
	C1248.000000,401.223785 1248.000000,336.947571 1248.000000,272.016693 
	C1257.238525,276.965759 1266.042358,281.560944 1274.730103,286.366333 
	C1285.734985,292.453491 1296.617676,298.761139 1307.602539,304.885284 
	C1328.568848,316.574341 1349.543457,328.249451 1370.566406,339.836334 
	C1384.868408,347.718964 1399.286377,355.390869 1413.600952,363.250916 
	C1426.632202,370.406250 1439.549683,377.770020 1452.624756,384.843536 
	C1455.165649,386.218140 1455.481323,387.113495 1453.440552,389.101837 
	C1448.577026,393.840729 1444.102173,398.956482 1439.445801,403.887543 
	C1426.531372,417.563354 1414.346069,431.849884 1402.210815,446.205048 
	C1375.030396,478.357574 1350.217773,512.261536 1327.144287,547.436646 
	C1312.017944,570.496399 1297.515381,593.959106 1284.358521,618.219727 
	C1274.931763,635.602112 1265.555298,653.012085 1256.238037,670.453308 
	C1255.589355,671.667480 1254.891602,672.667725 1253.404785,673.823853 
	C1252.478149,668.777283 1252.303711,663.794922 1252.276123,659.173645 
	C1252.198730,646.219482 1251.071777,633.321472 1250.954712,620.380005 
	C1250.782104,601.281311 1250.441895,582.161560 1249.690552,563.099670 
	C1249.088135,547.813965 1249.008423,532.549377 1249.138306,517.294373 
	C1249.282593,500.336884 1247.522339,483.447021 1248.000000,466.000000 
z"/>
<path fill="#FFFFFF" opacity="1.000000" stroke="none" 
	d="
M1401.775391,579.261658 
	C1421.151611,592.632568 1440.262207,605.751587 1459.375610,618.866394 
	C1473.511597,628.565796 1487.661011,638.245422 1501.784790,647.962524 
	C1509.169922,653.043579 1516.512207,658.186768 1524.169189,663.507080 
	C1423.184326,731.468994 1339.303833,817.117371 1262.420044,911.767090 
	C1261.423950,906.646790 1262.733887,902.799377 1263.203491,899.191101 
	C1266.109863,876.861206 1269.609009,854.630127 1274.584961,832.619446 
	C1280.448364,806.682800 1288.004639,781.291199 1296.918091,756.273193 
	C1304.249878,735.695007 1312.480835,715.498718 1321.608643,695.633789 
	C1328.720581,680.156006 1336.349243,664.940369 1344.154175,649.830261 
	C1355.541992,627.783997 1368.397339,606.540222 1381.297607,585.342896 
	C1383.758545,581.299072 1386.604614,577.473328 1388.835449,573.312439 
	C1389.988281,571.162170 1390.494751,571.182922 1392.267578,572.597107 
	C1395.192383,574.929993 1398.414429,576.890503 1401.775391,579.261658 
z"/>
</svg>